<svg xmlns="http://www.w3.org/2000/svg" version="1.1" xmlns:xlink="http://www.w3.org/1999/xlink" width="512" height="512" x="0" y="0" viewBox="0 0 512 512" style="enable-background:new 0 0 512 512" xml:space="preserve" class=""><g><path fill="#f3e600" d="M174.64 5.912 91.416 89.203a20.192 20.192 0 0 0-5.907 14.272v188.633a20.192 20.192 0 0 1-5.907 14.272l-11.068 11.077a20.192 20.192 0 0 0-5.907 14.272v134.424a20.192 20.192 0 0 0 5.907 14.272l25.642 25.663a20.16 20.16 0 0 0 14.26 5.912H403.563a20.158 20.158 0 0 0 14.26-5.912l25.642-25.663a20.192 20.192 0 0 0 5.907-14.272V331.729a20.192 20.192 0 0 0-5.907-14.272l-11.068-11.077a20.192 20.192 0 0 1-5.907-14.272V20.184C426.491 9.037 417.462 0 406.324 0H188.9a20.16 20.16 0 0 0-14.26 5.912zm217.562 27.659v37.112h-96.986V33.571z" opacity="1" data-original="#05fffc" class=""></path><path fill="#7c4dff" d="M394.8 122.733V512H117.2V122.733c0-11.143 9.033-20.175 20.175-20.175h237.248c11.144 0 20.177 9.033 20.177 20.175z" opacity="1" data-original="#a087d4" class=""></path><path fill="#7c4dff" d="M374.624 102.558h-30.905c11.143 0 20.175 9.033 20.175 20.176V512H394.8V122.733c0-11.142-9.033-20.175-20.176-20.175z" opacity="1" data-original="#9378cf" class=""></path><g fill="#6947b5"><path d="M317.994 484.442V512H194.006v-27.558l31.246-40.368h61.496zM329.404 391.145H182.596a7.726 7.726 0 1 0 0 15.452h146.809a7.726 7.726 0 1 0-.001-15.452zM223.885 376.009h64.229a7.726 7.726 0 1 0 0-15.452h-64.229a7.726 7.726 0 1 0 0 15.452z" fill="#7c4dff" opacity="1" data-original="#6947b5" class=""></path></g><path fill="#7c4dff" d="M256 44.4h-54.821a7.726 7.726 0 1 0 0 15.452H256c4.268 0 7.726-3.459 7.726-7.726S260.268 44.4 256 44.4z" opacity="1" data-original="#0dd1cf" class=""></path><path fill="#f3e600" d="m256 278.281-32.148 43.746h64.296z" opacity="1" data-original="#05fffc" class=""></path><g fill="#6947b5"><path d="m117.2 148.619 65.385 79.356h-38.734L117.2 195.64zM200.828 148.619l65.406 79.356h-38.733l-65.406-79.356zM284.478 148.619l65.405 79.356H311.15l-65.405-79.356zM368.127 148.619 394.8 180.98v46.995l-65.406-79.356z" fill="#7c4dff" opacity="1" data-original="#6947b5" class=""></path></g></g></svg>
